HIERARCHY
ROOT hip
{
	OFFSET	0.00  0.00  0.00 
	CHANNELS 6 Xposition Yposition Zposition Xrotation Zrotation Yrotation
	JOINT abdomen
	{
		OFFSET	0.000000 1.799998 0.000000
		CHANNELS 3 Xrotation Zrotation Yrotation
		JOINT chest
		{
			OFFSET	0.000000 4.464001 -0.360000
			CHANNELS 3 Xrotation Zrotation Yrotation
			JOINT neck
			{
				OFFSET	0.000000 5.400002 -0.144000
				CHANNELS 3 Xrotation Zrotation Yrotation
				JOINT head
				{
					OFFSET	0.000000 1.655998 0.000000
					CHANNELS 3 Xrotation Zrotation Yrotation
					End Site
					{
						OFFSET 0.000000 1.656000 0.000000
					}
				}
			}
			JOINT lCollar
			{
				OFFSET	1.800000 3.528000 -0.432000
				CHANNELS 3 Yrotation Zrotation Xrotation
				JOINT lShldr
				{
					OFFSET	1.728000 0.000000 0.000000
					CHANNELS 3 Zrotation Yrotation Xrotation
					JOINT lForeArm
					{
						OFFSET	5.328000 0.000000 0.000000
						CHANNELS 3 Yrotation Zrotation Xrotation
						JOINT lHand
						{
							OFFSET	4.464000 0.000000 0.000000
							CHANNELS 3 Zrotation Yrotation Xrotation
						}
					}
				}
			}
			JOINT rCollar
			{
				OFFSET	-1.872000 3.528000 -0.432000
				CHANNELS 3 Yrotation Zrotation Xrotation
				JOINT rShldr
				{
					OFFSET	-1.656000 0.000000 0.000000
					CHANNELS 3 Zrotation Yrotation Xrotation
					JOINT rForeArm
					{
						OFFSET	-5.400000 0.000000 0.000000
						CHANNELS 3 Yrotation Zrotation Xrotation
						JOINT rHand
						{
							OFFSET	-4.392000 0.000000 0.000000
							CHANNELS 3 Zrotation Yrotation Xrotation
						}
					}
				}
			}
		}
	}
	JOINT lThigh
	{
		OFFSET	2.808000 -0.864002 0.720000
		CHANNELS 3 Xrotation Zrotation Yrotation
		JOINT lShin
		{
			OFFSET	-1.080000 -10.583999 0.000000
			CHANNELS 3 Xrotation Zrotation Yrotation
			JOINT lFoot
			{
				OFFSET	0.000000 -10.152000 -0.648000
				CHANNELS 3 Xrotation Yrotation Zrotation
				End Site
				{
					OFFSET 0.000000 -1.296000 2.448000
				}
			}
		}
	}
	JOINT rThigh
	{
		OFFSET	-2.808000 -0.864002 0.720000
		CHANNELS 3 Xrotation Zrotation Yrotation
		JOINT rShin
		{
			OFFSET	1.080000 -10.583999 0.000000
			CHANNELS 3 Xrotation Zrotation Yrotation
			JOINT rFoot
			{
				OFFSET	0.000000 -10.152000 -0.648000
				CHANNELS 3 Xrotation Yrotation Zrotation
				End Site
				{
					OFFSET 0.000000 -1.296000 2.448000
				}
			}
		}
	}
}
MOTION
Frames:     7
Frame Time: 0.033333
0.000000 23.112001 0.000000 0.000000 0.000000 0.000000 0.000000 0.000000 0.000000 0.000000 0.000000 0.000000 0.000000 0.000000 0.000000 0.000000 0.000000 0.000000 0.000000 0.000000 0.000000 0.000000 0.000000 0.000000 0.000000 0.000000 0.000000 0.000000 0.000000 0.000000 0.000000 0.000000 0.000000 0.000000 0.000000 0.000000 0.000000 0.000000 0.000000 0.000000 0.000000 0.000000 0.000000 0.000000 0.000000 0.009766 0.000000 0.000000 -0.175781 0.000000 0.000000 -0.018203 -0.055664 -0.001857 0.028269 0.040974 0.016966 0.390157 0.178799 0.093878 
0.000000 23.112001 0.000000 0.000000 0.000000 0.000000 0.030497 0.000000 -0.034420 0.045235 -0.000948 -0.052133 0.000000 0.000000 0.000000 0.000000 0.000000 0.000000 0.001988 -0.004158 0.003073 -80.633987 -7.580770 0.000000 -8.000000 0.000000 0.000000 -7.000000 -0.013802 0.000000 2.944988 0.381925 -0.983478 80.263374 -0.041993 1.810078 8.593736 0.493362 -1.573156 7.000000 0.000000 0.000000 0.000000 0.000000 0.000000 0.009766 0.000000 0.000000 -0.175781 0.000000 0.000000 -0.018203 -0.055664 -0.001857 0.028269 0.040974 0.016966 0.390197 0.178731 0.093843 
0.000000 23.112001 0.000000 0.000000 0.000000 0.000000 0.065554 0.000000 -0.073644 0.097601 -0.002147 -0.111634 0.000000 0.000000 0.012685 1.483448 0.037028 -0.059363 0.007152 -0.014954 0.011053 -80.666519 -7.539990 0.791930 -18.466408 -0.294114 -0.969223 -8.567627 -0.048752 -1.741917 6.704208 0.858455 -2.240621 78.939034 -0.227208 4.066889 19.429474 1.125572 -3.488951 6.968153 -1.003989 0.997123 0.000000 0.000000 0.000000 0.009766 0.000000 0.000000 -0.175781 0.000000 0.000000 -0.018203 -0.055664 -0.001857 0.028269 0.040974 0.016966 0.390328 0.178507 0.093725 
0.000000 23.112001 0.000000 0.000000 0.000000 0.000000 0.101733 0.000000 -0.113870 0.151916 -0.003465 -0.172726 0.000000 0.000000 0.041791 3.273324 0.103147 -0.126142 0.016104 -0.033673 0.024888 -80.700241 -7.505868 1.747707 -30.230774 -0.896979 -2.991361 -10.135254 -0.107573 -3.483835 10.861506 1.378098 -3.632058 77.284714 -0.520021 6.526770 31.323032 1.826364 -5.545905 6.988546 -2.007978 3.073018 0.000000 0.000000 0.000000 0.009766 0.000000 0.000000 -0.175781 0.000000 0.000000 -0.018203 -0.055664 -0.001857 0.028269 0.040974 0.016966 0.390540 0.178143 0.093535 
0.000000 23.112001 0.000000 0.000000 0.000000 0.000000 0.139200 0.000000 -0.155530 0.208161 -0.004830 -0.235993 0.000000 0.000000 0.086683 5.152602 0.199499 -0.192896 0.028701 -0.060010 0.044356 -80.732910 -7.485727 2.722638 -42.448055 -1.701364 -5.758640 -11.702881 -0.187660 -5.225752 15.163937 1.915950 -5.072060 75.490898 -0.822250 9.072857 43.632545 2.551605 -7.675236 7.067104 -3.011967 5.986160 0.000000 0.000000 0.000000 0.009766 0.000000 0.000000 -0.166016 0.000000 0.000000 -0.018203 -0.055664 -0.001857 0.028272 0.040351 0.007221 0.387370 0.174377 0.113614 
0.000000 23.112001 0.000000 0.000000 0.000000 0.000000 0.178117 0.000000 -0.199054 0.266314 -0.006167 -0.302022 0.000000 0.000000 0.146726 7.028808 0.323021 -0.259602 0.044796 -0.093664 0.069230 -80.768112 -7.477396 3.686386 -54.273224 -2.600039 -8.963282 -13.270508 -0.286408 -6.967669 19.358557 2.447105 -6.474898 73.660156 -1.035712 11.588283 55.716152 3.257166 -9.808156 7.182235 -4.015956 9.495022 0.000000 0.000000 0.000000 0.009766 0.000000 0.000000 -0.175781 0.000000 0.000000 -0.018203 -0.055664 -0.001857 0.028269 0.040974 0.016966 0.391235 0.172392 0.101516 
0.000000 23.112001 0.000000 0.000000 0.000000 0.000000 0.218648 0.000000 -0.244871 0.326353 -0.007403 -0.371399 0.000000 0.000000 0.221286 8.809470 0.470650 -0.326237 0.064244 -0.134329 0.099286 -80.809425 -7.478701 4.622982 -64.861244 -3.485775 -12.297514 -14.838135 -0.401210 -8.709586 23.192419 2.946657 -7.754841 71.895042 -1.062224 13.956181 66.931992 3.898917 -11.875878 7.312346 -5.019945 13.358080 0.000000 0.000000 0.000000 0.009766 0.000000 0.000000 -0.175781 0.000000 0.000000 -0.018203 -0.055664 -0.001857 0.028269 0.040974 0.016966 0.391683 0.176172 0.092471 
